{
	"buffers":[{
		"uri":"data:application/octet-stream;base64,",
		"byteLength":14232
	},
	{
		"uri":"data:application/octet-stream;base64,",
		"byteLength":21132
	}],
	"asset":{
		"version":"2.0",
		"generator":"Created using the official Cinema 4D glTF Exporter 1.000x284978"
	},
	"scenes":[{
		"nodes":[0,
		1]
	}],
	"nodes":[{
		"name":"water",
		"mesh":0,
		"translation":[0.0,
		0.0,
		0.0],
		"rotation":[0.0,
		0.0,
		0.0,
		-1.0],
		"scale":[16.72277069091797,
		16.72277069091797,
		16.72277069091797]
	},
	{
		"name":"earth",
		"mesh":1,
		"translation":[0.0,
		0.0,
		0.0],
		"rotation":[0.0,
		0.0,
		0.0,
		-1.0],
		"scale":[16.72277069091797,
		16.72277069091797,
		16.72277069091797]
	}],
	"meshes":[{
		"name":"water",
		"primitives":[{
			"attributes":{
				"POSITION":1
			},
			"indices":0,
			"material":0
		}]
	},
	{
		"name":"earth",
		"primitives":[{
			"attributes":{
				"POSITION":3
			},
			"indices":2,
			"material":1
		}]
	}],
	"accessors":[{
		"count":2952,
		"bufferView":0,
		"type":"SCALAR",
		"componentType":5123,
		"byteOffset":0,
		"min":[0],
		"max":[693]
	},
	{
		"count":694,
		"bufferView":1,
		"type":"VEC3",
		"componentType":5126,
		"byteOffset":0,
		"min":[-8.406753540039063,
		-8.423351287841797,
		-8.494434356689454],
		"max":[8.406753540039063,
		8.52292537689209,
		8.494434356689454]
	},
	{
		"count":4488,
		"bufferView":2,
		"type":"SCALAR",
		"componentType":5123,
		"byteOffset":0,
		"min":[0],
		"max":[1012]
	},
	{
		"count":1013,
		"bufferView":3,
		"type":"VEC3",
		"componentType":5126,
		"byteOffset":0,
		"min":[-8.742206573486329,
		-9.351238250732422,
		-8.453768730163575],
		"max":[8.583353042602539,
		8.588372230529786,
		8.79779052734375]
	}],
	"bufferViews":[{
		"target":34963,
		"byteOffset":0,
		"buffer":0,
		"byteLength":5904
	},
	{
		"target":34962,
		"byteOffset":5904,
		"buffer":0,
		"byteLength":8328
	},
	{
		"target":34963,
		"byteOffset":0,
		"buffer":1,
		"byteLength":8976
	},
	{
		"target":34962,
		"byteOffset":8976,
		"buffer":1,
		"byteLength":12156
	}],
	"materials":[{
		"pbrMetallicRoughness":{
			"baseColorFactor":[0.19,
			0.19,
			0.19,
			1.0],
			"metallicFactor":0.0,
			"roughnessFactor":0.5
		},
		"emissiveFactor":[0.0,
		0.0,
		0.0],
		"alphaMode":"OPAQUE",
		"doubleSided":false,
		"name":"water"
	},
	{
		"pbrMetallicRoughness":{
			"baseColorFactor":[0.38,
			0.38,
			0.38,
			1.0],
			"metallicFactor":0.0,
			"roughnessFactor":0.5
		},
		"emissiveFactor":[0.0,
		0.0,
		0.0],
		"alphaMode":"OPAQUE",
		"doubleSided":false,
		"name":"earth"
	}]
}