<svg width="32" height="33" viewBox="0 0 32 33" fill="none" xmlns="http://www.w3.org/2000/svg">
<path d="M0.444443 16.4489C0.444443 18.8381 2.73868 21.0686 6.35573 22.3257C5.63344 26.0235 6.22628 29.0039 8.20644 30.1652C10.2418 31.3588 13.2741 30.5326 16.1521 27.9743C18.9575 30.4293 21.7929 31.3954 23.7712 30.2308C25.8046 29.0338 26.4231 25.8512 25.6809 22.0381C29.4482 20.7714 31.5556 18.8696 31.5556 16.4489C31.5556 14.1151 29.2571 12.096 25.6888 10.8469C26.4879 6.87609 25.8108 3.96805 23.7487 2.75877C21.7606 1.59295 18.8923 2.60908 16.0456 5.12836C13.0842 2.45434 10.2442 1.63793 8.18405 2.85074C6.19787 4.01988 5.6311 7.0544 6.35573 10.8206C2.86081 12.0597 0.444443 14.1244 0.444443 16.4489Z" fill="black"/>
<path d="M24.933 12.0873C24.6464 11.9869 24.3494 11.892 24.0436 11.8022C24.0939 11.5936 24.14 11.3877 24.181 11.1854C24.8543 7.86192 24.4141 5.18455 22.9109 4.30304C21.4695 3.45779 19.1123 4.3391 16.7316 6.44599C16.5026 6.64859 16.2731 6.86309 16.0436 7.08789C15.8907 6.93916 15.738 6.79542 15.5858 6.65794C13.0907 4.40512 10.5898 3.45574 9.08809 4.3398C7.6481 5.1875 7.22166 7.70449 7.82771 10.8541C7.88623 11.1583 7.95464 11.469 8.032 11.7849C7.67805 11.8871 7.33635 11.996 7.0094 12.1119C4.08422 13.149 2.21606 14.7743 2.21606 16.4603C2.21606 18.2015 4.22153 19.948 7.26833 21.007C7.50877 21.0906 7.75826 21.1696 8.01538 21.2447C7.93192 21.5863 7.85933 21.9211 7.79839 22.2476C7.22053 25.3426 7.67181 27.8001 9.10796 28.6424C10.5914 29.5123 13.081 28.6182 15.5052 26.4633C15.6968 26.2929 15.8891 26.1123 16.0817 25.9229C16.3314 26.1675 16.5807 26.3989 16.8287 26.6159C19.1768 28.6707 21.496 29.5005 22.9309 28.6558C24.4128 27.7834 24.8944 25.1434 24.2691 21.9315C24.2214 21.6862 24.1658 21.4355 24.1034 21.1805C24.2782 21.1279 24.4499 21.0737 24.6172 21.0172C27.7847 19.95 29.8455 18.2248 29.8455 16.4603C29.8455 14.7682 27.9171 13.1319 24.933 12.0873Z" fill="white"/>
<path d="M24.246 19.8781C24.095 19.929 23.9399 19.9781 23.782 20.0258C23.4323 18.9001 22.9604 17.703 22.3829 16.4663C22.934 15.259 23.3876 14.0773 23.7275 12.9589C24.0102 13.042 24.2845 13.1298 24.5488 13.2223C27.1056 14.1174 28.6652 15.4408 28.6652 16.4604C28.6652 17.5466 26.9809 18.9566 24.246 19.8781ZM23.1113 22.1647C23.3877 23.585 23.4272 24.8691 23.2441 25.8729C23.0795 26.775 22.7486 27.3763 22.3394 27.6172C21.4687 28.1297 19.6066 27.4635 17.5985 25.7062C17.3683 25.5048 17.1364 25.2897 16.9037 25.062C17.6823 24.1961 18.4603 23.1896 19.2197 22.0717C20.5554 21.9511 21.8173 21.7541 22.9617 21.4851C23.0181 21.7163 23.0681 21.943 23.1113 22.1647ZM11.6356 27.5286C10.7849 27.8341 10.1073 27.8429 9.69774 27.6027C8.82622 27.0916 8.46391 25.1184 8.95812 22.4716C9.01473 22.1685 9.0821 21.8571 9.15976 21.5388C10.2916 21.7933 11.5443 21.9765 12.8831 22.0869C13.6476 23.1808 14.4482 24.1862 15.2549 25.0667C15.0787 25.2397 14.9031 25.4044 14.7285 25.5597C13.6565 26.5125 12.5823 27.1886 11.6356 27.5286ZM7.65008 19.8714C6.30284 19.4032 5.19024 18.7946 4.4276 18.1305C3.74233 17.5337 3.39635 16.9412 3.39635 16.4604C3.39635 15.4374 4.89629 14.1324 7.39793 13.2454C7.70147 13.1378 8.01922 13.0364 8.34898 12.9411C8.69471 14.0848 9.14825 15.2805 9.69557 16.4896C9.14117 17.7167 8.68119 18.9315 8.33206 20.0886C8.09698 20.0199 7.86922 19.9476 7.65008 19.8714ZM8.98605 10.6238C8.46681 7.92524 8.81166 5.88957 9.67944 5.37875C10.6038 4.83457 12.6478 5.61045 14.802 7.55566C14.9397 7.67999 15.078 7.81012 15.2166 7.94475C14.4139 8.8213 13.6206 9.81924 12.8629 10.9067C11.5635 11.0292 10.3196 11.2259 9.17599 11.4894C9.10409 11.1953 9.0404 10.9063 8.98605 10.6238ZM20.9042 13.6164C20.6308 13.1362 20.3501 12.6674 20.064 12.2113C20.9455 12.3246 21.7901 12.4751 22.5833 12.6592C22.3452 13.4352 22.0484 14.2467 21.699 15.0785C21.4484 14.5947 21.1833 14.1068 20.9042 13.6164ZM16.044 8.80255C16.5884 9.40234 17.1336 10.072 17.6699 10.7986C17.1295 10.7726 16.5824 10.7591 16.0308 10.7591C15.4844 10.7591 14.9414 10.7723 14.4043 10.7978C14.9411 10.078 15.4911 9.40924 16.044 8.80255ZM11.1527 13.6247C10.8796 14.1063 10.6194 14.5915 10.3727 15.0776C10.029 14.2487 9.73497 13.4335 9.49477 12.6464C10.2831 12.4671 11.1237 12.3204 11.9997 12.2092C11.7095 12.6695 11.4265 13.1418 11.1527 13.6246V13.6247ZM12.0249 20.7973C11.1199 20.6946 10.2666 20.5555 9.47849 20.3811C9.72253 19.5799 10.0231 18.7474 10.3741 17.9006C10.6214 18.3863 10.8826 18.8718 11.1574 19.3544H11.1574C11.4373 19.846 11.7273 20.3276 12.0249 20.7973ZM16.0766 24.2029C15.5172 23.5892 14.9592 22.9102 14.4143 22.1799C14.9433 22.201 15.4826 22.2118 16.0308 22.2118C16.594 22.2118 17.1507 22.1989 17.6986 22.1741C17.1606 22.9175 16.6174 23.5976 16.0766 24.2029ZM21.7103 17.8574C22.0796 18.7134 22.3909 19.5416 22.638 20.329C21.837 20.5149 20.972 20.6646 20.0607 20.7758C20.3475 20.3136 20.6307 19.8367 20.9089 19.3461C21.1903 18.8498 21.4576 18.3527 21.7103 17.8574ZM19.8865 18.7465C19.4546 19.508 19.0112 20.235 18.561 20.9212C17.7411 20.9808 16.8941 21.0115 16.0308 21.0115C15.171 21.0115 14.3346 20.9843 13.5293 20.9312C13.061 20.236 12.6079 19.5069 12.1788 18.753H12.1789C11.7509 18.0013 11.3569 17.2431 11 16.4892C11.3568 15.7336 11.7497 14.9746 12.1753 14.2242L12.1752 14.2244C12.6019 13.4719 13.0509 12.7464 13.5149 12.0555C14.3366 11.9923 15.1792 11.9594 16.0308 11.9594H16.0308C16.8862 11.9594 17.7299 11.9926 18.5513 12.0563C19.0082 12.7421 19.4542 13.4653 19.8826 14.2179C20.3158 14.9788 20.7138 15.7328 21.0737 16.4722C20.7149 17.2243 20.3178 17.9858 19.8865 18.7465ZM22.3213 5.34304C23.2465 5.88562 23.6064 8.07383 23.025 10.9432C22.988 11.1263 22.9462 11.3128 22.9009 11.5018C21.7546 11.2329 20.5098 11.0327 19.2066 10.9084C18.4474 9.80898 17.6607 8.8095 16.871 7.9442C17.0833 7.7365 17.2953 7.53845 17.5064 7.35156C19.5462 5.54639 21.4527 4.83367 22.3213 5.34304Z" fill="black"/>
<path d="M16.0308 13.9514C17.3934 13.9514 18.498 15.0747 18.498 16.4604C18.498 17.846 17.3934 18.9693 16.0308 18.9693C14.6682 18.9693 13.5636 17.846 13.5636 16.4604C13.5636 15.0747 14.6682 13.9514 16.0308 13.9514Z" fill="white"/>
</svg>
