<svg id="Logo_Horizontal" data-name="Logo Horizontal" xmlns="http://www.w3.org/2000/svg" viewBox="0 0 507.73 173.09"><defs><style>.cls-1{fill:#c1c1c1;}.cls-2{fill:#f2f2f2;}</style></defs><path class="cls-1" d="M272.76,500a48.68,48.68,0,0,1,.33-5.56l-27,18.87V520l66.58,46.6V546.12A46.6,46.6,0,0,1,272.76,500Z" transform="translate(-246.13 -413.46)"/><path class="cls-1" d="M326,433.43v20.45a46.62,46.62,0,0,1,39.61,51.68l27-18.87V480Z" transform="translate(-246.13 -413.46)"/><polygon class="cls-2" points="66.57 53.26 66.57 40.42 66.57 0 0 46.6 0 53.26 0 99.86 26.96 80.99 66.57 53.26"/><polygon class="cls-2" points="79.89 119.83 79.89 132.67 79.89 173.09 146.46 126.49 146.46 119.83 146.46 73.23 119.5 92.1 79.89 119.83"/><path class="cls-2" d="M443.11,534.88h6.95c0,3,3,5.91,7.34,5.91,4.08,0,6.61-2.41,6.61-5.57,0-2.75-2.3-4.36-5.69-5.28l-4.94-1.38c-8.49-2.18-10-7.29-10-10.73,0-7,6.08-11.77,13.43-11.77,7.18,0,12.92,4.48,12.92,11.88H462.8c0-3.27-2.47-5.62-6.14-5.62-3.39,0-6.2,2.29-6.2,5.39,0,1.15.28,3.39,4.88,4.6l4.7,1.26c6.2,1.66,11,5.11,11,11.37,0,7.23-6,12-13.78,12C448.79,547,443.11,541.59,443.11,534.88Z" transform="translate(-246.13 -413.46)"/><path class="cls-2" d="M474.65,535V513.06l6.66-2.06v8.49h5.57v5.28h-5.57v10c-.06,3,.92,5.34,4.42,5.34h1.72v6.2H485C477.52,546.3,474.65,542.4,474.65,535Z" transform="translate(-246.13 -413.46)"/><path class="cls-2" d="M516.44,546.3h-6.66v-4.19c-1.37,3.39-5.56,4.88-8.32,4.88-6.95,0-10.73-4.59-10.73-12.46v-15h6.65v14.76c0,4.36,2.59,6.54,5.57,6.54s6.83-1.72,6.83-6.94V519.49h6.66Z" transform="translate(-246.13 -413.46)"/><path class="cls-2" d="M553.81,510.82a4.19,4.19,0,0,1,4.36-4.07,4.08,4.08,0,1,1,0,8.15A4.23,4.23,0,0,1,553.81,510.82Zm7.69,8.67V546.3h-6.65V519.49Z" transform="translate(-246.13 -413.46)"/><path class="cls-2" d="M565.46,532.87c0-8.5,6.61-14.07,14.24-14.07s14.3,5.57,14.3,14.07S587.34,547,579.7,547A13.89,13.89,0,0,1,565.46,532.87Zm21.82,0a7.56,7.56,0,1,0-15.1,0c0,4.76,3.39,7.92,7.52,7.92A7.55,7.55,0,0,0,587.28,532.87Z" transform="translate(-246.13 -413.46)"/><path class="cls-2" d="M596.12,538h6.26c0,1.83,1.6,3.55,4.42,3.55s4.36-1.26,4.36-3c0-1.55-1.15-2.18-3.16-2.64l-3.56-.92c-6-1.66-7.58-4.82-7.58-8.21,0-4.19,4.2-8,10-8,4.83,0,10.11,2.42,10.11,8.39h-6.38c0-1.84-1.66-3-3.55-3-2.07,0-3.51,1.21-3.51,2.87,0,1.38,1.32,2.12,2.87,2.53l4.31,1.15c6,1.55,7.12,5.33,7.12,7.8,0,5.46-5.46,8.44-10.91,8.44S596.29,543.78,596.12,538Z" transform="translate(-246.13 -413.46)"/><path class="cls-2" d="M480.25,492.56h-5.68L468.31,470l-6.14,22.56h-5.74L443.11,453h7.52l8.72,27.67,6.21-22.22h5.56l6.2,22.33L486.11,453h7.52Z" transform="translate(-246.13 -413.46)"/><path class="cls-2" d="M491.21,479.13c0-8.5,6.61-14.07,14.24-14.07s14.3,5.57,14.3,14.07-6.66,14.12-14.3,14.12A13.89,13.89,0,0,1,491.21,479.13Zm21.82,0a7.56,7.56,0,1,0-15.1,0c0,4.76,3.39,7.92,7.52,7.92A7.55,7.55,0,0,0,513,479.13Z" transform="translate(-246.13 -413.46)"/><path class="cls-2" d="M542.42,466l-1.32,6.32a7.77,7.77,0,0,0-3.91-1c-4.36,0-6.77,4.31-6.77,11.88v9.36h-6.71V465.75h6.65v5.74c1.44-4.53,4.31-6.43,7.7-6.43A9.27,9.27,0,0,1,542.42,466Z" transform="translate(-246.13 -413.46)"/><path class="cls-2" d="M551.2,453v39.55h-6.66V453Z" transform="translate(-246.13 -413.46)"/><path class="cls-2" d="M584,492.56h-6.66V489c-1.84,2.82-5.63,4.25-8.9,4.25-7.11,0-13.2-5.57-13.2-14.12s6.09-14.07,13.15-14.07c3.44,0,7.11,1.38,9,4.19V453H584Zm-6.77-13.49a7.73,7.73,0,0,0-7.75-7.81,7.61,7.61,0,0,0-7.52,7.81,7.64,7.64,0,1,0,15.27,0Z" transform="translate(-246.13 -413.46)"/><path class="cls-2" d="M549.19,546.3h-6.66v-3.56c-1.83,2.82-5.62,4.25-8.89,4.25-7.12,0-13.21-5.57-13.21-14.12s6.09-14.07,13.15-14.07c3.44,0,7.12,1.38,8.95,4.19V506.75h6.66Zm-6.77-13.49a7.73,7.73,0,0,0-7.75-7.81,7.62,7.62,0,0,0-7.52,7.81,7.64,7.64,0,1,0,15.27,0Z" transform="translate(-246.13 -413.46)"/><path class="cls-2" d="M602,478.78V453h7V478.5c0,5.62,3.79,8.09,7.92,8.09s7.87-2.47,7.87-8.09V453h7v25.77c0,9.07-6.89,14.47-14.87,14.47S602,487.85,602,478.78Z" transform="translate(-246.13 -413.46)"/><path class="cls-2" d="M663.25,477.52v15H656.6V478c0-4.36-2.59-6.6-5.57-6.6s-6.83,1.72-6.83,6.94v14.24h-6.66V465.75h6.66V470c1.37-3.44,5.56-4.94,8.32-4.94C659.47,465.06,663.25,469.66,663.25,477.52Z" transform="translate(-246.13 -413.46)"/><path class="cls-2" d="M667.5,457.08a4.19,4.19,0,0,1,4.36-4.07,4.08,4.08,0,1,1,0,8.15A4.23,4.23,0,0,1,667.5,457.08Zm7.69,8.67v26.81h-6.66V465.75Z" transform="translate(-246.13 -413.46)"/><path class="cls-2" d="M680.68,481.25V459.32l6.65-2.06v8.49h5.57V471h-5.57v10c-.05,3.05.92,5.34,4.43,5.34h1.72v6.2h-2.41C683.55,492.56,680.68,488.66,680.68,481.25Z" transform="translate(-246.13 -413.46)"/><path class="cls-2" d="M722.75,481.48H702c.75,3.73,3.62,5.74,7.58,5.74a8.85,8.85,0,0,0,7.29-3.44l4.42,3.39c-2.47,3.9-7.18,6.08-12.06,6.08-8,0-14.12-5.74-14.12-14.12a13.7,13.7,0,0,1,14.07-14.07c7.69,0,13.72,5.4,13.72,13.84A21.28,21.28,0,0,1,722.75,481.48ZM709.32,471c-3.67,0-6.43,1.72-7.29,5.85h14.24C715.87,473.16,713.05,471,709.32,471Z" transform="translate(-246.13 -413.46)"/><path class="cls-2" d="M753.87,492.56h-6.66V489c-1.84,2.82-5.63,4.25-8.9,4.25-7.12,0-13.2-5.57-13.2-14.12s6.08-14.07,13.14-14.07c3.45,0,7.12,1.38,9,4.19V453h6.66Zm-6.78-13.49a7.73,7.73,0,0,0-7.75-7.81,7.62,7.62,0,0,0-7.52,7.81,7.64,7.64,0,1,0,15.27,0Z" transform="translate(-246.13 -413.46)"/></svg>