<svg id="Layer_1" data-name="Layer 1" xmlns="http://www.w3.org/2000/svg" viewBox="0 0 1087.49 355.17"><defs><style>.cls-1{fill:#fff;}</style></defs><path class="cls-1" d="M452.49,154.69,464.17,92H481.4l-19,85.55H442.46l-13-63.72-13,63.72H396.55L377.55,92H395l12.74,62.31L419.68,92h19.71Z"/><path class="cls-1" d="M482.7,146c0-22.31,15.81-33.28,31.86-33.28s31.87,11,31.87,33.28-15.82,33.16-31.87,33.16S482.7,168.14,482.7,146Zm16.52,0c0,13.57,6.37,20.41,15.34,20.41S529.9,159.53,529.9,146s-6.37-20.54-15.34-20.54S499.22,132.39,499.22,146Z"/><path class="cls-1" d="M593.16,129.79a43.38,43.38,0,0,0-6.73-.35c-8,0-13.34,2.95-13.34,14.87v33.27H556.81V114.09h16.05v11.1c3.66-7.91,9.32-11,16.76-11a31.14,31.14,0,0,1,3.54.24Z"/><path class="cls-1" d="M617.82,177.58H601.54V92h16.28Z"/><path class="cls-1" d="M674.23,177.58v-8c-4.13,7.08-11.69,9.56-18.29,9.56-15.11,0-27.62-13-27.62-33.28,0-19.94,12.27-33.16,27.62-33.16,8,0,14.86,3.54,18.29,9.56V92h16.28v85.55Zm.59-31.74c0-12.75-5.9-20.65-14.87-20.65-8.5,0-14.52,8.49-14.52,20.77s6,20.65,14.52,20.65C668.92,166.61,674.82,159.06,674.82,145.84Z"/><path class="cls-1" d="M747.75,92v49.44c0,15.11,3.06,24.19,18.64,24.19s18.41-9.08,18.41-24.19V92h16.88v49.33c0,28.2-10.27,37.76-35.29,37.76s-35.52-9.56-35.52-37.76V92Z"/><path class="cls-1" d="M831.18,122.47c3.66-6.49,10.5-9.79,18.41-9.79,15.46,0,21.95,9,21.95,24.9v40H855.25V141.12c0-8.14-1.77-15.34-11-15.34-10.74,0-13.1,8.73-13.1,18.76v33H814.89V114.09h16.29Z"/><path class="cls-1" d="M901.51,92v15.1H885.23V92Zm0,22.06v63.49H885.23V114.09Z"/><path class="cls-1" d="M918.39,96.87h16.28v17.22h13.22v11.22H934.67v32.8c0,6.49,2.24,7.79,8,7.79h4.95v11.68H935.73c-14.63,0-17.34-4.48-17.34-17.11V125.31h-9V114.09h9Z"/><path class="cls-1" d="M970.31,150.32c.94,10.86,8.26,16.17,16.05,16.17,5.07,0,10-1.77,13.33-7.32h16.76c-3.42,9.44-12.63,20-30,20-20.42,0-32.34-15.23-32.34-33.52,0-18.88,13.1-32.92,31.86-32.92,19.6,0,31.75,15.22,31.16,37.64Zm.24-11.21h30.09c-.36-10.74-7.91-14.51-14.75-14.51C979.75,124.6,971.84,128.37,970.55,139.11Z"/><path class="cls-1" d="M1071.21,177.58v-8c-4.13,7.08-11.69,9.56-18.29,9.56-15.11,0-27.62-13-27.62-33.28,0-19.94,12.27-33.16,27.62-33.16,8,0,14.86,3.54,18.29,9.56V92h16.28v85.55Zm.59-31.74c0-12.75-5.9-20.65-14.87-20.65-8.5,0-14.52,8.49-14.52,20.77s6,20.65,14.52,20.65C1065.9,166.61,1071.8,159.06,1071.8,145.84Z"/><path class="cls-1" d="M405.05,252.6c-13.81-2.83-25.61-9.91-25.61-24.78,0-17.23,18.41-24.78,34.11-24.78,17.58,0,32.68,10.39,33.63,26.79H430.89c-1.3-10-10-13.34-18.05-13.34s-16.52,2.95-16.52,10.62c0,6,4.95,9.33,11.91,10.63l11.22,2c13.92,2.6,29.26,7.91,29.26,25.73,0,17.58-17.46,26.2-34.69,26.2-21,0-34.93-11.33-36.47-29.74h16.29c1.89,12.62,10.62,16.28,20.77,16.28,7.55,0,17.11-2.83,17.11-11.92,0-7.2-6.73-10.15-15.81-11.68Z"/><path class="cls-1" d="M462.16,209.41h16.29v17.23h13.22v11.21H478.45v32.81c0,6.49,2.24,7.79,8,7.79h5v11.68H479.51c-14.63,0-17.35-4.48-17.35-17.11V237.85h-9V226.64h9Z"/><path class="cls-1" d="M541.11,281.75c-3.66,6.49-10.62,9.92-18.53,9.92-15.22,0-21.36-9.33-21.36-24.9V226.64h16.29v36.59c0,8.49,1.3,15.34,10.38,15.34,10.86,0,13.22-8.85,13.22-18.88V226.64H557.4v63.49H541.11Z"/><path class="cls-1" d="M613.8,290.13v-8c-4.13,7.08-11.68,9.56-18.29,9.56-15.1,0-27.61-13-27.61-33.28,0-19.95,12.27-33.16,27.61-33.16,8,0,14.87,3.54,18.29,9.56V204.57h16.29v85.56Zm.59-31.74c0-12.75-5.9-20.65-14.87-20.65-8.49,0-14.51,8.49-14.51,20.76s6,20.66,14.51,20.66C608.49,279.16,614.39,271.6,614.39,258.39Z"/><path class="cls-1" d="M661,204.57v15.11H644.72V204.57Zm0,22.07v63.49H644.72V226.64Z"/><path class="cls-1" d="M671.39,258.5c0-22.3,15.81-33.27,31.86-33.27s31.87,11,31.87,33.27-15.82,33.17-31.87,33.17S671.39,280.69,671.39,258.5Zm16.52,0c0,13.58,6.37,20.42,15.34,20.42s15.34-6.84,15.34-20.42S712.22,238,703.25,238,687.91,244.93,687.91,258.5Z"/><path class="cls-1" d="M781.73,245.76c-1.3-5.31-6-9.09-13.57-9.09-6,0-10.27,2.25-10.27,6.14,0,3.42,2.48,6,8.5,7.32l8.49,1.88c12.63,2.84,23.37,6,23.37,19.12,0,12.75-13.1,20.54-27.5,20.54-15.57,0-27.37-8-28.91-22.54h15.7c.94,6.13,5.19,10.73,13.69,10.73,7.08,0,11.44-2.59,11.44-7.19s-4.84-6.49-10.38-7.79l-9.44-2c-11.92-2.48-19.83-7.43-19.83-19,0-11.33,12.27-18.88,26-18.88,13.22,0,25.73,6.14,28,20.77Z"/><path class="cls-1" d="M324.52,93.48a.65.65,0,0,0-.16-.21.44.44,0,0,0-.15-.12l-.1-.07-.05,0L283.19,69.48a1.17,1.17,0,0,0-1.2,0L265.59,79v-19a1.18,1.18,0,0,0-.6-1L224.06,35.42a1.2,1.2,0,0,0-1.19,0L204.42,46.09V24.92a.5.5,0,0,0,0-.12,1.18,1.18,0,0,0-.6-1L162.92.16a1.22,1.22,0,0,0-1.2,0L.69,93.35l-.1.05-.06,0,0,0a.53.53,0,0,0-.14.12.43.43,0,0,0-.11.12.86.86,0,0,0-.07.1l0,0a.06.06,0,0,0,0,0,.53.53,0,0,0-.08.17.67.67,0,0,0,0,.19,1.36,1.36,0,0,0,0,.2V261.27A34.16,34.16,0,0,0,17.06,290.8l31.7,18.28a10,10,0,0,0,14.74-6.16L67,289.47l4.64-17.75,3,13.35,2.8,12.62,5.09,23a21.08,21.08,0,0,0,10,13.68l29.67,17.11a27.67,27.67,0,0,0,34-5.18,27,27,0,0,0,6.71-13.1,28.54,28.54,0,0,0,.55-5.58v-6.3a41.49,41.49,0,0,0,8.84,15.61,34.46,34.46,0,0,0,6,5.22,30.5,30.5,0,0,0,2.59,1.64c11.33,6.42,25,5.81,37.52-1.67l70.28-40.62a72.32,72.32,0,0,0,36-62.41V94.11A1.07,1.07,0,0,0,324.52,93.48ZM282.59,71.89l38.54,22.23L276.61,120,238.08,97.79Zm-7.17,50.2V235a19.94,19.94,0,0,1-9.95,17.23l-38.68,22.31a10.91,10.91,0,0,1-16.38-9.46V239.4a1.31,1.31,0,0,0,.46-.15l14.87-8.57a22.35,22.35,0,0,0,11.14-19.3V99.87ZM235.09,96.77a1.19,1.19,0,0,0-.6,1V211.38a19.94,19.94,0,0,1-10,17.23l-14.13,8.14V160.07a1.25,1.25,0,0,0-.16-.6.38.38,0,0,0-.09-.13.43.43,0,0,0-.11-.12.47.47,0,0,0-.1-.1l-.13-.09h0l-6.56-3.79-34.36-19.81a1.2,1.2,0,0,0-1.2,0L120.82,162.7l0,0,0,0-.13.1,0,0s0,0,0,0a.53.53,0,0,0-.12.14l-.07.09a.35.35,0,0,0,0,.08s0,0,0,0a1.17,1.17,0,0,0,0,.11,1.11,1.11,0,0,0-.07.26v.15L107.8,265.87l-.65,5.37-.11-4.93L104.48,154,263.2,62.14V80.41ZM223.47,37.84,262,60.06,103.27,151.93h0L64.73,129.7ZM61.77,128.65l0,0a1.16,1.16,0,0,0-.21.16l-.05,0a.47.47,0,0,0-.09.12v0s0,0,0,0a.19.19,0,0,0-.06.07l-.07.14h0a1,1,0,0,0-.07.25v.19L43.32,241.46V118.73L202,26.88v20.6ZM162.32,2.58,200.86,24.8,42.12,116.66,3.59,94.44Zm-1.2,302.61v22.39a25.46,25.46,0,0,1-.36,4.3,24.81,24.81,0,0,1-11.88,17.28h0l-.32.2a24.88,24.88,0,0,1-25.14,0L93.73,332.26a18.72,18.72,0,0,1-8.89-12.12L72.93,266.37a1.21,1.21,0,0,0-1.15-.94h0a1.21,1.21,0,0,0-1.16.89l-9.42,36A7.62,7.62,0,0,1,58,306.74a7.83,7.83,0,0,1-1.31.7A7.61,7.61,0,0,1,50,307l-31.7-18.28A31.81,31.81,0,0,1,2.39,261.27V96.51l38.54,22.23V256.56a1.19,1.19,0,0,0,1.1,1.19h.09a1.21,1.21,0,0,0,1.18-1l20-125.13L102.09,154h0l3,133.92a1.19,1.19,0,0,0,2.38.12l14.83-122.36L161.12,188ZM162.31,186l-38.54-22.22,44.52-25.9,38.54,22.22Zm160,53.08a69.9,69.9,0,0,1-34.8,60.34L217.22,340c-11.76,7-24.56,7.64-35.12,1.65l-.23-.14a32.5,32.5,0,0,1-7.41-5.87,39.29,39.29,0,0,1-8.89-15.84,51.06,51.06,0,0,1-2.06-14.63V188.05l4.78-2.78,35-20.35,4.77-2.77V265.06a13.32,13.32,0,0,0,20,11.53l38.67-22.31A22.33,22.33,0,0,0,277.81,235V122.1l44.51-25.9Z"/></svg>