<svg id="Layer_1" data-name="Layer 1" xmlns="http://www.w3.org/2000/svg" viewBox="0 0 1086.72 351.52"><defs><style>.cls-1{fill:#fff;}</style></defs><path class="cls-1" d="M451.72,152.87,463.4,90.2h17.23l-19,85.56H441.68L428.7,112l-13,63.73H395.78l-19-85.56h17.47L407,152.51,418.91,90.2h19.71Z"/><path class="cls-1" d="M481.93,144.13c0-22.3,15.81-33.28,31.86-33.28s31.86,11,31.86,33.28-15.81,33.16-31.86,33.16S481.93,166.32,481.93,144.13Zm16.52,0c0,13.57,6.37,20.42,15.34,20.42s15.34-6.85,15.34-20.42-6.37-20.53-15.34-20.53S498.45,130.56,498.45,144.13Z"/><path class="cls-1" d="M592.38,128a42.06,42.06,0,0,0-6.72-.36c-8,0-13.34,3-13.34,14.87v33.28H556V112.27h16.05v11.09c3.65-7.9,9.32-11,16.75-11a33.41,33.41,0,0,1,3.54.23Z"/><path class="cls-1" d="M617.05,175.76H600.76V90.2h16.29Z"/><path class="cls-1" d="M673.46,175.76v-8c-4.14,7.08-11.69,9.56-18.3,9.56-15.1,0-27.61-13-27.61-33.28,0-19.94,12.27-33.16,27.61-33.16,8,0,14.87,3.54,18.3,9.56V90.2h16.28v85.56ZM674,144c0-12.74-5.9-20.65-14.86-20.65-8.5,0-14.52,8.5-14.52,20.77s6,20.65,14.52,20.65C668.14,164.78,674,157.23,674,144Z"/><path class="cls-1" d="M747,90.2v49.45c0,15.1,3.07,24.19,18.65,24.19S784,154.75,784,139.65V90.2H800.9v49.33c0,28.2-10.26,37.76-35.28,37.76s-35.52-9.56-35.52-37.76V90.2Z"/><path class="cls-1" d="M830.41,120.65c3.65-6.49,10.5-9.8,18.41-9.8,15.45,0,21.95,9,21.95,24.9v40H854.48V139.29c0-8.14-1.77-15.34-11-15.34-10.74,0-13.1,8.74-13.1,18.77v33H814.12V112.27h16.29Z"/><path class="cls-1" d="M900.74,90.2v15.11H884.45V90.2Zm0,22.07v63.49H884.45V112.27Z"/><path class="cls-1" d="M917.61,95H933.9v17.23h13.22v11.21H933.9v32.81c0,6.49,2.24,7.79,8,7.79h5v11.68H935c-14.63,0-17.35-4.49-17.35-17.11V123.48h-9V112.27h9Z"/><path class="cls-1" d="M969.54,148.5c.94,10.86,8.26,16.17,16.05,16.17,5.07,0,10-1.77,13.33-7.32h16.76c-3.42,9.44-12.63,19.94-30,19.94-20.41,0-32.33-15.22-32.33-33.51,0-18.88,13.1-32.93,31.86-32.93,19.59,0,31.75,15.23,31.16,37.65Zm.23-11.21h30.1c-.36-10.74-7.91-14.52-14.76-14.52C979,122.77,971.07,126.55,969.77,137.29Z"/><path class="cls-1" d="M1070.43,175.76v-8c-4.13,7.08-11.68,9.56-18.29,9.56-15.1,0-27.61-13-27.61-33.28,0-19.94,12.27-33.16,27.61-33.16,8,0,14.87,3.54,18.29,9.56V90.2h16.29v85.56ZM1071,144c0-12.74-5.9-20.65-14.87-20.65-8.49,0-14.51,8.5-14.51,20.77s6,20.65,14.51,20.65C1065.12,164.78,1071,157.23,1071,144Z"/><path class="cls-1" d="M404.28,250.78c-13.81-2.83-25.61-9.91-25.61-24.78,0-17.23,18.41-24.78,34.1-24.78,17.59,0,32.69,10.38,33.64,26.78H430.12c-1.3-10-10-13.33-18.06-13.33s-16.52,3-16.52,10.62c0,6,5,9.32,11.92,10.62l11.21,2c13.93,2.59,29.27,7.9,29.27,25.72,0,17.59-17.47,26.2-34.7,26.2-21,0-34.93-11.33-36.46-29.74h16.29c1.88,12.63,10.62,16.29,20.76,16.29,7.56,0,17.12-2.83,17.12-11.92,0-7.2-6.73-10.15-15.82-11.68Z"/><path class="cls-1" d="M461.39,207.59h16.29v17.23h13.21V236H477.68v32.81c0,6.49,2.24,7.78,8,7.78h5v11.69H478.74c-14.64,0-17.35-4.49-17.35-17.11V236h-9V224.82h9Z"/><path class="cls-1" d="M540.34,279.93c-3.66,6.49-10.62,9.91-18.53,9.91-15.22,0-21.36-9.32-21.36-24.9V224.82h16.29V261.4c0,8.5,1.29,15.34,10.38,15.34,10.86,0,13.22-8.85,13.22-18.88v-33h16.28v63.49H540.34Z"/><path class="cls-1" d="M613,288.31v-8c-4.13,7.08-11.68,9.56-18.29,9.56-15.11,0-27.61-13-27.61-33.28,0-19.94,12.27-33.16,27.61-33.16,8,0,14.87,3.54,18.29,9.56V202.75h16.29v85.56Zm.59-31.75c0-12.74-5.9-20.65-14.87-20.65-8.5,0-14.51,8.5-14.51,20.77s6,20.65,14.51,20.65C607.72,277.33,613.62,269.78,613.62,256.56Z"/><path class="cls-1" d="M660.23,202.75v15.11H644V202.75Zm0,22.07v63.49H644V224.82Z"/><path class="cls-1" d="M670.62,256.68c0-22.3,15.81-33.28,31.86-33.28s31.86,11,31.86,33.28-15.81,33.16-31.86,33.16S670.62,278.87,670.62,256.68Zm16.52,0c0,13.57,6.37,20.42,15.34,20.42s15.34-6.85,15.34-20.42-6.37-20.53-15.34-20.53S687.14,243.11,687.14,256.68Z"/><path class="cls-1" d="M781,243.94c-1.3-5.32-6-9.09-13.58-9.09-6,0-10.26,2.24-10.26,6.13,0,3.43,2.48,6,8.49,7.32l8.5,1.89c12.63,2.83,23.37,6,23.37,19.12,0,12.74-13.1,20.53-27.5,20.53-15.58,0-27.38-8-28.91-22.54h15.69c1,6.14,5.2,10.74,13.69,10.74,7.08,0,11.45-2.6,11.45-7.2s-4.84-6.49-10.39-7.79l-9.44-2c-11.92-2.48-19.82-7.44-19.82-19,0-11.33,12.27-18.88,26-18.88,13.22,0,25.73,6.13,28,20.77Z"/><path class="cls-1" d="M41.15,236.36,58.52,127.47l0-.2a.53.53,0,0,1,0-.18.5.5,0,0,1,.05-.13h0a.92.92,0,0,1,.16-.3l.2-.23a1.88,1.88,0,0,1,.26-.19l.17-.09L200.2,44.66V24.58l-159,92.05Z"/><path class="cls-1" d="M200.54,95.44l-97.89,56.63,2.54,111.32.06,2.56.37-3.09,12.29-101.3a.78.78,0,0,1,0-.14,1.52,1.52,0,0,1,.06-.2l0-.05a1.27,1.27,0,0,1,.12-.23,1.72,1.72,0,0,1,.23-.28,1.55,1.55,0,0,1,.28-.2l.15-.09,47-27.35a1.45,1.45,0,0,1,1.48,0l34.52,19.9,1.26.73,5.38,3.1a1.11,1.11,0,0,1,.16.11.87.87,0,0,1,.15.13,1.21,1.21,0,0,1,.18.23.92.92,0,0,1,.13.24.69.69,0,0,1,0,.13.25.25,0,0,1,0,.13h0a1.53,1.53,0,0,1,0,.3v76.62L223,226.71a19.78,19.78,0,0,0,9.87-17.09V95.43a1.47,1.47,0,0,1,.43-1.05.52.52,0,0,1,.13-.12.48.48,0,0,1,.14-.09l.07,0,.13-.07,28-16.28V60.05L203.05,94Z"/><path class="cls-1" d="M170.41,336A41.14,41.14,0,0,1,162,321.82v4.65a28.27,28.27,0,0,1-.56,5.68,27.62,27.62,0,0,1-5.77,12.11l13.43-7.81,4.35,2.53A34.19,34.19,0,0,1,170.41,336Z"/><path class="cls-1" d="M61.44,301.74a9.89,9.89,0,0,1-1.4,3.12l14.83-8.54-5.51-24.84Z"/><path class="cls-1" d="M159.05,326.47V186.32l-38.47-22.18L105.71,286.75a1.5,1.5,0,0,1-1.55,1.3,1.48,1.48,0,0,1-1.4-1.44L99.7,152.1,61.13,129.86l-20,125.42a1.47,1.47,0,0,1-1.46,1.25h-.09a1.48,1.48,0,0,1-1.38-1.48V116.63L0,94.61V259.79a31.67,31.67,0,0,0,15.81,27.36l24,13.83,2.51,1.44,5.38,3.11a7.54,7.54,0,0,0,7.86-.26,7.39,7.39,0,0,0,3-4.29l9.48-36.17a1.47,1.47,0,0,1,1.43-1.12,1.5,1.5,0,0,1,1.44,1.16l12,54.07a18.55,18.55,0,0,0,8.81,12l29.83,17.2a24.74,24.74,0,0,0,25,0l.15-.09.17-.1a24.76,24.76,0,0,0,11.81-17.2A23.94,23.94,0,0,0,159.05,326.47Z"/><polygon class="cls-1" points="101.15 149.52 260.21 57.48 222.01 35.46 62.96 127.5 101.15 149.52"/><polygon class="cls-1" points="198.72 22.03 160.53 0 1.49 92.04 39.66 114.07 198.72 22.03"/><polygon class="cls-1" points="122.33 161.74 160.53 183.76 204.73 158.04 166.54 136 122.33 161.74"/><polygon class="cls-1" points="275.45 117.44 319.66 91.73 281.47 69.69 237.26 95.41 275.45 117.44"/><path class="cls-1" d="M276.93,120V233.36A22.74,22.74,0,0,1,265.59,253L226.7,275.43a13.52,13.52,0,0,1-13.66,0,13.26,13.26,0,0,1-3.72-3.14,10.34,10.34,0,0,1-.78-1,9.86,9.86,0,0,1-.66-1.09,13.65,13.65,0,0,1-1.67-6.57v-103L162,186.32V304a51.44,51.44,0,0,0,2.06,14.64A39,39,0,0,0,173,334.41a32.62,32.62,0,0,0,7.39,5.85l.15.1.06,0c10.52,6,23.3,5.37,35-1.66l70.69-40.85a70,70,0,0,0,34.85-60.43V94.29Z"/><path class="cls-1" d="M235.79,209.62a22.74,22.74,0,0,1-11.36,19.65l-15,8.62a1,1,0,0,1-.31.14V263.6a10.81,10.81,0,0,0,1.3,5.14c.2.35.41.69.65,1a10.36,10.36,0,0,0,.78,1,10.76,10.76,0,0,0,2.62,2.11,10.56,10.56,0,0,0,10.7,0l38.89-22.43A19.75,19.75,0,0,0,274,233.36V120L235.79,98Z"/></svg>